<?xml version="1.0" encoding="UTF-8" standalone="no"?>
<svg
   xmlns:dc="http://purl.org/dc/elements/1.1/"
   xmlns:cc="http://creativecommons.org/ns#"
   xmlns:rdf="http://www.w3.org/1999/02/22-rdf-syntax-ns#"
   xmlns:svg="http://www.w3.org/2000/svg"
   xmlns="http://www.w3.org/2000/svg"
   xmlns:sodipodi="http://sodipodi.sourceforge.net/DTD/sodipodi-0.dtd"
   xmlns:inkscape="http://www.inkscape.org/namespaces/inkscape"
   width="512"
   height="512"
   viewBox="0 0 135.46666 135.46667"
   version="1.1"
   id="svg8"
   inkscape:export-filename="/Users/jeffsetter/Pictures/sandico.png"
   inkscape:export-xdpi="96"
   inkscape:export-ydpi="96"
   inkscape:version="1.0beta1 (32d4812, 2019-09-19)"
   sodipodi:docname="sandpiper.svg">
  <defs
     id="defs2">
    <clipPath
       clipPathUnits="userSpaceOnUse"
       id="clipPath1560">
      <path
         style="fill:none;stroke:#000000;stroke-width:0.264583px;stroke-linecap:butt;stroke-linejoin:miter;stroke-opacity:1"
         d="m 203.48497,154.97713 -0.15498,1.47228 -3.09954,3.95192 -1.00735,1.3173 0.0775,0.92987 h 0.54242 l 0.61991,-0.77489 4.26187,-4.18438 1.47229,2.86707 2.24716,3.02206 3.48699,2.55712 3.64196,1.23982 6.04411,0.38744 -0.61991,2.47963 -3.09954,6.97398 -5.34671,1.93721 5.03676,0.15498 1.78223,0.0775 -0.23246,-2.0147 3.87442,-7.74885 v -1.78224 h 0.54242 l 1.31731,3.87443 -0.38744,2.7121 -1.85973,2.0147 2.32466,0.85237 1.23982,-2.24717 v -1.78223 l 2.78959,2.40214 h 0.38744 l -0.30996,-1.00735 -2.78959,-3.02205 -1.54977,-4.10689 6.19909,-2.94457 2.0147,-2.55713 1.31731,-0.69739 -0.46493,-2.40215 1.00735,-1.54977 -1.62726,-2.0147 10.07351,-2.78959 -11.46831,-1.85972 -7.98132,-2.86708 -6.89648,-0.92986 -3.25452,0.30995 -4.95927,-0.85237 -3.95192,2.40214 -1.93721,2.78959 z"
         id="path1562"
         inkscape:connector-curvature="0" />
    </clipPath>
    <clipPath
       clipPathUnits="userSpaceOnUse"
       id="clipPath1860">
      <rect
         style="stroke-width:0.264583;paint-order:fill markers stroke"
         id="rect1862"
         width="37.985462"
         height="33.553829"
         x="205.12154"
         y="127.88441" />
    </clipPath>
  </defs>
  <sodipodi:namedview
     id="base"
     pagecolor="#ffffff"
     bordercolor="#666666"
     borderopacity="1.0"
     inkscape:pageopacity="0.0"
     inkscape:pageshadow="2"
     inkscape:zoom="0.35"
     inkscape:cx="400"
     inkscape:cy="560"
     inkscape:document-units="mm"
     inkscape:current-layer="layer1"
     inkscape:document-rotation="0"
     showgrid="false"
     showguides="false"
     inkscape:window-width="1600"
     inkscape:window-height="907"
     inkscape:window-x="0"
     inkscape:window-y="23"
     inkscape:window-maximized="0"
     units="px" />
  <metadata
     id="metadata5">
    <rdf:RDF>
      <cc:Work
         rdf:about="">
        <dc:format>image/svg+xml</dc:format>
        <dc:type
           rdf:resource="http://purl.org/dc/dcmitype/StillImage" />
        <dc:title></dc:title>
      </cc:Work>
    </rdf:RDF>
  </metadata>
  <g
     inkscape:label="Layer 1"
     inkscape:groupmode="layer"
     id="layer1"
     style="display:inline;opacity:0.8" />
  <g
     inkscape:groupmode="layer"
     id="layer4"
     inkscape:label="Feet"
     style="display:inline" />
  <g
     inkscape:groupmode="layer"
     id="layer6"
     inkscape:label="Body"
     style="display:inline" />
  <g
     inkscape:groupmode="layer"
     id="layer7"
     inkscape:label="Body - Top"
     style="display:inline" />
  <g
     inkscape:groupmode="layer"
     id="layer3"
     inkscape:label="Beak"
     style="display:inline" />
  <g
     inkscape:groupmode="layer"
     id="layer5"
     inkscape:label="Head"
     style="display:inline" />
  <g
     inkscape:groupmode="layer"
     id="layer2"
     inkscape:label="Eye"
     style="display:inline">
    <g
       id="g1998"
       inkscape:export-xdpi="192.96701"
       inkscape:export-ydpi="192.96701"
       transform="matrix(3.6393943,0,0,3.6393943,-451.65043,-469.38399)">
      <path
         sodipodi:nodetypes="cccccccccccccc"
         inkscape:connector-curvature="0"
         id="path1881"
         d="m 143.2807,151.92313 -7.8e-4,0.79959 -3.37792,7.16528 -1.18702,0.533 -1.6535,0.26029 -0.84448,0.43504 3.09643,-0.23031 1.07479,-0.62696 0.12795,0.55019 0.61417,0.0384 -0.25591,-1.02362 3.14761,-6.87098 -0.002,-1.02911 z"
         style="display:inline;opacity:0.8;fill:#000000;stroke:#000000;stroke-width:0.264583px;stroke-linecap:butt;stroke-linejoin:miter;stroke-opacity:1" />
      <path
         sodipodi:nodetypes="cccccccccccccccccccc"
         inkscape:connector-curvature="0"
         id="path1883"
         d="m 144.69545,151.77689 0.81082,3.36411 -0.14075,1.89368 -0.46063,1.12597 -0.75491,0.57579 0.35827,0.2431 0.71652,-0.58857 0.55019,-1.21554 0.26871,0.84448 -0.76771,1.01082 0.46061,0.12794 0.75492,-1.10038 -0.0896,-2.00883 2.20077,1.97044 0.2687,-0.20471 -2.27753,-2.18797 -0.46091,-0.53035 -0.23691,-0.935 -0.53208,-2.4889 z"
         style="display:inline;opacity:0.8;fill:#000000;stroke:#000000;stroke-width:0.264583px;stroke-linecap:butt;stroke-linejoin:miter;stroke-opacity:1" />
      <ellipse
         ry="7.8468466"
         rx="11.433975"
         cy="144.105"
         cx="142.10048"
         id="path1901"
         style="display:inline;fill:#cccccc;fill-opacity:1;stroke:#cccccc;stroke-width:0.0651332;stroke-miterlimit:4;stroke-dasharray:none;paint-order:fill markers stroke" />
      <path
         transform="matrix(0.99512916,-0.09857958,-0.13048365,-0.99145045,0,0)"
         d="m 133.21526,-156.00017 a 11.320973,6.5029984 0 0 1 -5.67692,5.6372 11.320973,6.5029984 0 0 1 -11.33735,-0.0164 11.320973,6.5029984 0 0 1 -5.62753,-5.65351"
         sodipodi:arc-type="arc"
         sodipodi:open="true"
         sodipodi:end="3.1466175"
         sodipodi:start="0"
         sodipodi:ry="6.5029984"
         sodipodi:rx="11.320973"
         sodipodi:cy="-156.00017"
         sodipodi:cx="121.89429"
         sodipodi:type="arc"
         id="path1909"
         style="display:inline;fill:#746a68;fill-opacity:1;stroke:#746a68;stroke-width:0.0574824;stroke-miterlimit:4;stroke-dasharray:none;paint-order:fill markers stroke" />
      <path
         sodipodi:nodetypes="ccccc"
         inkscape:connector-curvature="0"
         id="path1911"
         d="m 151.14321,138.69406 c 0,0 0.53893,1.19007 3.00828,1.37298 2.46935,0.18292 5.5789,0.41156 5.5789,0.41156 l -6.84995,0.91519 z"
         style="display:inline;fill:#746a68;fill-opacity:1;stroke:#746a68;stroke-width:0.264583px;stroke-linecap:butt;stroke-linejoin:miter;stroke-opacity:1" />
      <path
         sodipodi:nodetypes="ccccccc"
         inkscape:connector-curvature="0"
         id="path1871"
         d="m 129.59262,142.71324 -3.50175,4.8374 v 0.54925 l 0.66694,-0.15693 1.71538,-2.11956 2.00633,-2.02485 z"
         style="display:inline;opacity:0.8;fill:#000000;stroke:#000000;stroke-width:0.264583px;stroke-linecap:butt;stroke-linejoin:miter;stroke-opacity:1" />
      <ellipse
         ry="4.253911"
         rx="4.1657629"
         cy="140.5676"
         cx="133.21324"
         id="path1891"
         style="display:inline;fill:#e6e6e6;stroke:#ececec;stroke-width:0.0261605;stroke-miterlimit:4;stroke-dasharray:none;paint-order:fill markers stroke" />
      <path
         transform="matrix(0.69925613,-0.71487123,-0.73148425,-0.68185832,0,0)"
         d="m -7.8963976,-193.48846 a 4.1028357,4.277729 0 0 1 -2.0514179,3.70462 4.1028357,4.277729 0 0 1 -4.1028355,0 4.1028357,4.277729 0 0 1 -2.051418,-3.70462"
         sodipodi:arc-type="arc"
         sodipodi:open="true"
         sodipodi:end="3.1415927"
         sodipodi:start="0"
         sodipodi:ry="4.277729"
         sodipodi:rx="4.1028357"
         sodipodi:cy="-193.48846"
         sodipodi:cx="-11.999233"
         sodipodi:type="arc"
         id="path1899"
         style="display:inline;fill:#87837f;fill-opacity:1;stroke:#87837f;stroke-width:0.290063;stroke-miterlimit:4;stroke-dasharray:none;paint-order:fill markers stroke" />
      <circle
         r="0.70617163"
         cy="140.72432"
         cx="132.83873"
         id="path1875"
         style="display:inline;opacity:0.8;stroke-width:0.264583;paint-order:fill markers stroke" />
    </g>
  </g>
</svg>
